<svg id="Layer_1" data-name="Layer 1" xmlns="http://www.w3.org/2000/svg" xmlns:xlink="http://www.w3.org/1999/xlink" viewBox="0 0 412.96 354.35"><defs><style>.cls-1{fill:#bfeafa;}.cls-2{fill:#a2cfdd;}.cls-3{fill:#f2b15a;}.cls-4{fill:#e5913e;}.cls-5{fill:#fec46d;}.cls-6{fill:#fdedb0;}.cls-7{fill:#292929;}.cls-19,.cls-21,.cls-22,.cls-8{fill:none;}.cls-19,.cls-8{stroke:#000;}.cls-21,.cls-22,.cls-8{stroke-linecap:round;}.cls-22,.cls-8{stroke-linejoin:round;}.cls-8{stroke-width:13.2px;}.cls-9{fill:#10105b;}.cls-10{fill:#dd1905;}.cls-11{fill:#ff4200;}.cls-12{fill:#25258c;}.cls-13{fill:#00a9ea;}.cls-14{fill:#fff;}.cls-15{fill:#ff703f;}.cls-16{fill:url(#linear-gradient);}.cls-17{fill:url(#linear-gradient-2);}.cls-18{fill:#fa0e24;}.cls-19,.cls-21{stroke-miterlimit:10;}.cls-19{stroke-width:2px;}.cls-20{fill:url(#linear-gradient-3);}.cls-21,.cls-22{stroke:#fff;}.cls-21{stroke-width:0.5px;opacity:0.5;}.cls-22{stroke-width:2.5px;opacity:0.7;}</style><linearGradient id="linear-gradient" x1="163.41" y1="123.39" x2="163.41" y2="110.41" gradientUnits="userSpaceOnUse"><stop offset="0" stop-color="#ff4200"/><stop offset="0.09" stop-color="#f93b01"/><stop offset="0.38" stop-color="#e92803"/><stop offset="0.68" stop-color="#e01d05"/><stop offset="1" stop-color="#dd1905"/></linearGradient><linearGradient id="linear-gradient-2" x1="115.71" y1="119.68" x2="115.71" y2="105.96" xlink:href="#linear-gradient"/><linearGradient id="linear-gradient-3" x1="168.58" y1="154.82" x2="164.96" y2="133.19" gradientUnits="userSpaceOnUse"><stop offset="0" stop-color="#fff" stop-opacity="0.6"/><stop offset="1" stop-color="#fff" stop-opacity="0.35"/></linearGradient></defs><ellipse class="cls-1" cx="207.9" cy="287.27" rx="193.67" ry="51.26"/><ellipse class="cls-2" cx="115.77" cy="289.5" rx="77.24" ry="25.83"/><ellipse class="cls-2" cx="277.84" cy="273.8" rx="92.21" ry="28.16"/><polyline class="cls-3" points="267.34 175.88 272.14 157.69 328.47 165.65 363.85 180.62 263.85 227.57"/><polyline class="cls-4" points="272.14 157.69 272.14 208.46 191.74 177.98 272.14 157.69"/><polygon class="cls-4" points="311.62 93.82 311.81 107.96 401.57 132.54 401.57 116.51 311.62 93.82"/><polygon class="cls-5" points="272.14 157.69 363.85 180.62 401.57 132.54 311.81 107.96 272.14 157.69"/><polygon class="cls-5" points="191.74 268.42 283.14 297.68 283.14 204.62 191.74 177.98 191.74 268.42"/><polygon class="cls-4" points="363.85 269.13 283.14 297.68 283.14 204.62 363.85 180.62 363.85 269.13"/><polygon class="cls-6" points="223.26 187.11 241.96 192.93 241.16 243.43 231.73 234.96 223.26 237.36 223.26 187.11"/><path class="cls-7" d="M134.17,38.66,96,34.49a11.83,11.83,0,0,0-.52-2.24,9.13,9.13,0,0,0-.66-1.59L133,35.18a10.18,10.18,0,0,1,.88,2.14A10.51,10.51,0,0,1,134.17,38.66Z"/><path class="cls-8" d="M185.63,124.59s2.74,15.16,7.23,33.76S226.93,169.64,232,169"/><path d="M96.13,36.26c.1,4.51-1.79,8.25-4.27,8.63l-.36,0c-2.67.06-4.9-3.72-5-8.45s2-8.59,4.63-8.65l.79.1C94.21,28.53,96,32,96.13,36.26Z"/><path class="cls-7" d="M93.88,36.31c.05,2.28-.85,4.19-2.06,4.56a6,6,0,0,0-.85,0A7,7,0,0,0,84.37,48l.54,24.85L79.52,73l-.66-30a10.52,10.52,0,0,1,5.34-9.41,16,16,0,0,1,6.61-1.7,8,8,0,0,1,.85,0C92.88,32.21,93.83,34.06,93.88,36.31Z"/><path d="M84.2,33.57A10.52,10.52,0,0,0,78.86,43l.66,30-3.61.08-.54-24.85A15.9,15.9,0,0,1,84.2,33.57Z"/><path d="M140,51.55l.5,22.89-3.51.34-.48-22.21a7,7,0,0,0-3.17-5.71,10.85,10.85,0,0,0,1-3.13A8.48,8.48,0,0,1,140,51.55Z"/><path class="cls-7" d="M145.45,52.37,146,75.81l-9,.2,0-1.23,3.51-.34L140,51.55a8.48,8.48,0,0,0-5.7-7.82,13.67,13.67,0,0,0,.18-2.67,13.27,13.27,0,0,0-.58-3.74A16,16,0,0,1,145.45,52.37Z"/><path d="M91.91,27.92l37.52,4.69h0c1.36,0,2.61,1,3.52,2.57L94.8,30.66A4.93,4.93,0,0,0,91.91,27.92Z"/><path d="M134.43,41.06a12.65,12.65,0,0,1-1.14,5.8c-.84,1.73-2.09,2.83-3.49,2.86-.12,0-.23,0-.35,0l-.35,0h0L91.86,44.89c1.44-.22,2.69-1.58,3.45-3.58a13.19,13.19,0,0,0,.82-5.05A14.39,14.39,0,0,0,96,34.49l38.19,4.17A12.34,12.34,0,0,1,134.43,41.06Z"/><path d="M183.47,262.43l-24.73.8-.35-8.07,19.55.09A18.39,18.39,0,0,1,183.47,262.43Z"/><path class="cls-7" d="M185,280.71c-2.42,8.41-7.37,10.83-7.37,10.83l-18.43.89.65-3-1.12-26.19,24.73-.8A27.89,27.89,0,0,1,185,280.71Z"/><path d="M79.45,265.79l-24.72.8-.1-9,19.22-.7A29.51,29.51,0,0,1,79.45,265.79Z"/><path class="cls-7" d="M79.85,289.86c-2,5.2-5.33,6.9-5.33,6.9l-19,.92L55,293.93l-.29-27.34,24.72-.8c.21.48.39,1,.56,1.5C82,273.43,81.89,284.66,79.85,289.86Z"/><path d="M168.32,273.59c.23,10.29-3.86,18.73-9.12,18.84s-9.71-8.13-9.93-18.43,3.85-18.73,9.12-18.84S168.1,263.29,168.32,273.59Z"/><path class="cls-7" d="M164.12,273.41c.14,6.24-2.14,11.35-5.08,11.42s-5.45-4.95-5.58-11.19,2.14-11.35,5.08-11.42S164,267.17,164.12,273.41Z"/><path d="M64.6,277.44c.24,11.06-3.83,20.12-9.09,20.24s-9.73-8.76-10-19.83,3.83-20.12,9.09-20.23S64.36,266.38,64.6,277.44Z"/><path class="cls-7" d="M60.39,277.24c.15,6.71-2.12,12.2-5.06,12.26s-5.45-5.32-5.6-12,2.12-12.2,5.07-12.26S60.25,270.53,60.39,277.24Z"/><path class="cls-9" d="M87.26,258.24l-40.49-.11a14.66,14.66,0,0,1-14.63-14.34l-.56-25.57,51.91-2.9,2.15.48Z"/><path class="cls-10" d="M85.64,215.8l-2.15-.48-51.91,2.9L29,101.6A18.57,18.57,0,0,1,41,83.86L80,68.89Z"/><path class="cls-11" d="M195.91,90.68,198.63,215l-7,.05a5.68,5.68,0,0,0-5.63,5.81l.31,14.06a5.18,5.18,0,0,1-5,5.29L93.2,242.44a5.14,5.14,0,0,1-5.29-5l-.35-16a5.69,5.69,0,0,0-5.73-5.56l-9.44.07-2.88-132A15.54,15.54,0,0,1,86.24,68.1l95.35,7.43A15.54,15.54,0,0,1,195.91,90.68Z"/><path class="cls-12" d="M151.89,241,136.52,257l-47.59,1.26A15.53,15.53,0,0,1,73,243.09l-.6-27.15,9.44-.07a5.69,5.69,0,0,1,5.73,5.56l.35,16a5.14,5.14,0,0,0,5.29,5Z"/><path class="cls-13" d="M198.63,215l.55,24.89a15.55,15.55,0,0,1-15.13,15.87L136.52,257,151.89,241l29.43-.74a5.18,5.18,0,0,0,5-5.29L186,220.87a5.68,5.68,0,0,1,5.63-5.81Z"/><path class="cls-14" d="M159.73,222.11a16.14,16.14,0,1,1-16.49-15.78A16.16,16.16,0,0,1,159.73,222.11Z"/><path class="cls-12" d="M148,217.9l.28,12.8a2.09,2.09,0,0,1-2,2.13l-12.8.28Z"/><path class="cls-11" d="M153.79,211.81l-3.89,4.06L135,216.2l2.89-3a3.46,3.46,0,0,1,2.44-1.07Z"/><path class="cls-13" d="M153.79,211.81l.29,13.45a3.52,3.52,0,0,1-1,2.48l-2.89,3-.33-14.89Z"/><path class="cls-11" d="M148,217.9,133.4,233.11l-.28-12.8a2.07,2.07,0,0,1,2-2.13Z"/><path class="cls-15" d="M162.87,138.46h0A14.2,14.2,0,0,0,177.78,124l-.22-10.24a14.19,14.19,0,0,0-13.34-13.86h0a14.21,14.21,0,0,0-15.07,14.49l.23,10.23A14.2,14.2,0,0,0,162.87,138.46Z"/><path class="cls-15" d="M114.75,137l.73,0a14.59,14.59,0,0,0,15.36-14.88l-.25-11.44a14.58,14.58,0,0,0-13.47-14.22l-.72-.06a14.58,14.58,0,0,0-15.7,14.86l.25,11.45A14.6,14.6,0,0,0,114.75,137Z"/><path class="cls-16" d="M177.73,121.47a14.2,14.2,0,1,1-28.4.62l-.05-2.28-.18-8a14.22,14.22,0,0,1,14.2-14.52q.44,0,.87,0a14.2,14.2,0,0,1,13.34,13.87l.2,9.14Z"/><path class="cls-17" d="M130.78,119.58a14.58,14.58,0,0,1-15.35,14.88l-.73,0a14.58,14.58,0,0,1-13.8-14.24l-.15-6.9-.1-4.56a14.58,14.58,0,0,1,15.7-14.86l.72.06a14.58,14.58,0,0,1,13.46,14.22l.24,11.14Z"/><path class="cls-8" d="M93.64,170.35S70.91,191,53,173.26s-6.42-36.6-6.42-36.6"/><path d="M162.33,182.41h0a8,8,0,0,1-8,6.46l-28.45-.41a8,8,0,0,1-7.1-11.57l7.6-15.45a16,16,0,0,1,29.13,1l6.36,15.38A7.94,7.94,0,0,1,162.33,182.41Z"/><path d="M177.73,121.47a14.2,14.2,0,1,1-28.4.62l-.05-2.28c1.92,3.65,6.16,9.23,14.19,9.75,6.63.43,11.34-4.6,14.24-9.19Z"/><path d="M130.78,119.58a14.58,14.58,0,0,1-15.35,14.88l-.73,0a14.58,14.58,0,0,1-13.8-14.24l-.15-6.9c2,5,6.87,14.35,15.69,14.28,7.58,0,12.06-4.78,14.33-8.28Z"/><path class="cls-18" d="M162.33,182.41h0a8,8,0,0,1-8,6.46l-28.45-.41a8,8,0,0,1-7.37-5.1A50.09,50.09,0,0,1,135,173.73C144.39,170.6,155.41,177.11,162.33,182.41Z"/><path class="cls-19" d="M154.33,188.88l-28.46-.41a8,8,0,0,1-7.09-11.57l7.59-15.45a16,16,0,0,1,29.14,1l6.36,15.38A8,8,0,0,1,154.33,188.88Z"/><path class="cls-20" d="M146.08,147s5.41,1.95,6.67-1.58-1.26-12.6,6.43-17.89,18.52-5.67,24.44,2.27,5,22.8-6.3,27.09S150.11,157.73,146.08,147Z"/><path class="cls-21" d="M146.08,147s5.41,1.95,6.67-1.58-1.26-12.6,6.43-17.89,18.52-5.67,24.44,2.27"/><path class="cls-22" d="M179.39,133.4a7.79,7.79,0,0,1,2.72,7.35"/><path class="cls-22" d="M176.49,130.05a7.12,7.12,0,0,0-3.2-1.6"/></svg>